<?xml version="1.0" encoding="UTF-8" standalone="no"?>
<!-- Generator: Adobe Illustrator 16.0.4, SVG Export Plug-In . SVG Version: 6.00 Build 0)  -->

<svg
   xmlns:dc="http://purl.org/dc/elements/1.1/"
   xmlns:cc="http://creativecommons.org/ns#"
   xmlns:rdf="http://www.w3.org/1999/02/22-rdf-syntax-ns#"
   xmlns:svg="http://www.w3.org/2000/svg"
   xmlns="http://www.w3.org/2000/svg"
   xmlns:xlink="http://www.w3.org/1999/xlink"
   xmlns:sodipodi="http://sodipodi.sourceforge.net/DTD/sodipodi-0.dtd"
   xmlns:inkscape="http://www.inkscape.org/namespaces/inkscape"
   version="1.1"
   id="Ebene_1"
   x="0px"
   y="0px"
   width="141.73199"
   height="27.354"
   viewBox="0 0 141.73199 27.354"
   enable-background="new 0 0 170.08 85.04"
   xml:space="preserve"
   sodipodi:docname="TUK-Logo.svg"
   inkscape:version="0.92.5 (2060ec1f9f, 2020-04-08)"><metadata
   id="metadata29"><rdf:RDF><cc:Work
       rdf:about=""><dc:format>image/svg+xml</dc:format><dc:type
         rdf:resource="http://purl.org/dc/dcmitype/StillImage" /><dc:title></dc:title></cc:Work></rdf:RDF></metadata><defs
   id="defs27" /><sodipodi:namedview
   pagecolor="#ffffff"
   bordercolor="#666666"
   borderopacity="1"
   objecttolerance="10"
   gridtolerance="10"
   guidetolerance="10"
   inkscape:pageopacity="0"
   inkscape:pageshadow="2"
   inkscape:window-width="1920"
   inkscape:window-height="1043"
   id="namedview25"
   showgrid="false"
   inkscape:zoom="2.016698"
   inkscape:cx="71.040001"
   inkscape:cy="13.521"
   inkscape:window-x="0"
   inkscape:window-y="407"
   inkscape:window-maximized="1"
   inkscape:current-layer="Ebene_1"
   fit-margin-top="0"
   fit-margin-left="0"
   fit-margin-right="0"
   fit-margin-bottom="0" />
<g
   id="g12"
   transform="translate(-14,-28.687)">
	<defs
   id="defs3">
		<rect
   id="SVGID_1_"
   x="14"
   y="28.687"
   width="141.73199"
   height="27.354" />
	</defs>
	<clipPath
   id="SVGID_2_">
		<use
   xlink:href="#SVGID_1_"
   overflow="visible"
   id="use5"
   style="overflow:visible"
   x="0"
   y="0"
   width="100%"
   height="100%" />
	</clipPath>
	<path
   clip-path="url(#SVGID_2_)"
   d="M 149.685,55.854 V 51.06 l -0.211,-1.442 h 0.07 l 0.718,1.442 3.454,4.857 h 1.308 v -9.254 h -1.705 v 4.832 l 0.211,1.404 h -0.063 l -0.696,-1.406 -3.472,-4.894 h -1.318 v 9.254 h 1.704 z m -8.552,-7.652 c 0.099,-0.026 0.237,-0.043 0.418,-0.051 0.18,-0.009 0.361,-0.014 0.546,-0.014 0.476,0 0.836,0.111 1.08,0.333 0.244,0.223 0.366,0.53 0.366,0.924 0,0.525 -0.149,0.902 -0.447,1.131 -0.297,0.229 -0.697,0.343 -1.198,0.343 h -0.765 z m 0,7.652 v -3.769 l 0.976,0.209 2.069,3.56 h 2.069 l -2.083,-3.47 -0.659,-0.439 c 0.527,-0.185 0.95,-0.513 1.268,-0.987 0.316,-0.474 0.475,-1.088 0.475,-1.84 0,-0.504 -0.093,-0.924 -0.279,-1.262 -0.187,-0.337 -0.436,-0.603 -0.747,-0.795 -0.311,-0.192 -0.665,-0.328 -1.06,-0.407 -0.395,-0.079 -0.795,-0.118 -1.199,-0.118 -0.178,0 -0.371,0.004 -0.582,0.013 -0.211,0.009 -0.428,0.021 -0.65,0.038 -0.223,0.018 -0.447,0.042 -0.673,0.074 -0.226,0.032 -0.435,0.065 -0.628,0.099 v 9.095 h 1.703 z m -3.57,0 v -1.603 h -3.806 v -2.243 h 3.415 v -1.602 h -3.415 v -2.141 h 3.741 v -1.603 h -5.446 v 9.19 h 5.511 z m -11.708,-7.587 v 7.588 h 1.705 v -7.588 h 2.775 v -1.603 h -7.262 v 1.603 z m -7.429,7.747 c 0.479,0 0.921,-0.065 1.325,-0.197 0.403,-0.133 0.745,-0.339 1.025,-0.619 0.28,-0.28 0.498,-0.634 0.655,-1.064 0.156,-0.429 0.233,-0.94 0.233,-1.535 v -5.934 h -1.704 v 5.806 c 0,0.681 -0.123,1.174 -0.369,1.481 -0.247,0.307 -0.646,0.461 -1.198,0.461 -0.278,0 -0.522,-0.033 -0.732,-0.099 -0.21,-0.066 -0.385,-0.178 -0.525,-0.33 -0.143,-0.154 -0.246,-0.355 -0.312,-0.604 -0.065,-0.247 -0.099,-0.551 -0.099,-0.91 v -5.806 h -1.705 v 6.159 c 0,2.127 1.134,3.191 3.406,3.191 m -8.869,-5.671 0.274,-1.455 h 0.064 l 0.282,1.442 0.68,2.044 h -1.974 z m -1.825,5.511 0.621,-1.878 h 3.023 l 0.608,1.878 h 1.704 L 110.382,46.6 h -1.287 l -3.161,9.254 z m -2.856,0 v -1.603 h -4.108 v -7.588 h -1.705 v 9.19 h 5.813 z m -12.665,0 c 0.485,0.124 1.047,0.187 1.683,0.187 0.481,0 0.926,-0.058 1.331,-0.174 0.404,-0.117 0.75,-0.293 1.035,-0.53 0.285,-0.236 0.506,-0.534 0.664,-0.891 0.158,-0.357 0.236,-0.784 0.236,-1.279 0,-0.477 -0.091,-0.876 -0.273,-1.198 -0.182,-0.321 -0.411,-0.592 -0.689,-0.81 -0.277,-0.217 -0.595,-0.409 -0.955,-0.573 -0.359,-0.165 -0.695,-0.318 -1.009,-0.462 -0.313,-0.143 -0.586,-0.302 -0.819,-0.475 -0.232,-0.174 -0.35,-0.39 -0.35,-0.648 0,-0.279 0.111,-0.501 0.335,-0.666 0.222,-0.165 0.544,-0.247 0.964,-0.247 0.438,0 0.844,0.049 1.219,0.148 0.375,0.099 0.656,0.21 0.844,0.332 l 0.533,-1.529 c -0.293,-0.18 -0.67,-0.317 -1.129,-0.412 -0.461,-0.094 -0.949,-0.141 -1.467,-0.141 -0.447,0 -0.854,0.052 -1.219,0.158 -0.365,0.105 -0.682,0.269 -0.948,0.489 -0.266,0.22 -0.474,0.497 -0.618,0.83 -0.146,0.333 -0.218,0.725 -0.218,1.174 0,0.511 0.103,0.931 0.308,1.26 0.205,0.329 0.463,0.603 0.775,0.821 0.312,0.221 0.648,0.409 1.008,0.569 0.36,0.16 0.696,0.309 1.01,0.448 0.312,0.139 0.557,0.293 0.731,0.463 0.174,0.17 0.263,0.394 0.263,0.67 0,0.361 -0.143,0.629 -0.427,0.806 -0.284,0.177 -0.694,0.265 -1.231,0.265 -0.219,0 -0.43,-0.018 -0.637,-0.052 -0.207,-0.033 -0.402,-0.076 -0.588,-0.13 -0.186,-0.052 -0.353,-0.108 -0.501,-0.17 -0.149,-0.061 -0.271,-0.117 -0.364,-0.168 l -0.578,1.557 c 0.234,0.127 0.595,0.253 1.081,0.378 m -7.474,-7.652 c 0.099,-0.026 0.238,-0.043 0.418,-0.051 0.18,-0.009 0.362,-0.014 0.546,-0.014 0.474,0 0.835,0.111 1.079,0.333 0.245,0.223 0.367,0.53 0.367,0.924 0,0.525 -0.149,0.902 -0.446,1.131 -0.299,0.229 -0.697,0.343 -1.199,0.343 h -0.765 z m 0,7.652 v -3.769 l 0.976,0.209 2.068,3.56 h 2.07 l -2.082,-3.47 -0.661,-0.439 c 0.529,-0.185 0.952,-0.513 1.269,-0.987 0.316,-0.474 0.475,-1.088 0.475,-1.84 0,-0.504 -0.094,-0.924 -0.279,-1.262 -0.186,-0.337 -0.435,-0.603 -0.746,-0.795 -0.312,-0.192 -0.666,-0.328 -1.061,-0.407 -0.395,-0.079 -0.794,-0.118 -1.199,-0.118 -0.178,0 -0.372,0.004 -0.582,0.013 -0.211,0.009 -0.428,0.021 -0.651,0.038 -0.223,0.018 -0.447,0.042 -0.672,0.074 -0.225,0.032 -0.435,0.065 -0.629,0.099 v 9.095 h 1.704 z m -3.832,0 V 54.251 H 77.1 v -2.243 h 3.415 V 50.406 H 77.1 v -2.141 h 3.742 v -1.603 h -5.447 v 9.19 h 5.51 z m -12.626,0 c 0.486,0.124 1.047,0.187 1.683,0.187 0.482,0 0.926,-0.058 1.331,-0.174 0.405,-0.117 0.75,-0.293 1.035,-0.53 0.284,-0.236 0.506,-0.534 0.664,-0.891 0.158,-0.357 0.237,-0.784 0.237,-1.279 0,-0.477 -0.092,-0.876 -0.274,-1.198 -0.182,-0.321 -0.412,-0.592 -0.689,-0.81 -0.277,-0.217 -0.595,-0.409 -0.955,-0.573 -0.359,-0.165 -0.696,-0.318 -1.009,-0.462 -0.313,-0.143 -0.586,-0.302 -0.819,-0.475 -0.233,-0.174 -0.35,-0.39 -0.35,-0.648 0,-0.279 0.112,-0.501 0.335,-0.666 0.222,-0.165 0.544,-0.247 0.963,-0.247 0.438,0 0.844,0.049 1.22,0.148 0.375,0.1 0.656,0.21 0.843,0.332 l 0.534,-1.529 c -0.294,-0.18 -0.671,-0.317 -1.13,-0.412 -0.46,-0.094 -0.949,-0.141 -1.467,-0.141 -0.447,0 -0.853,0.052 -1.218,0.158 -0.365,0.105 -0.681,0.269 -0.948,0.489 -0.268,0.221 -0.474,0.497 -0.619,0.83 -0.145,0.333 -0.217,0.725 -0.217,1.174 0,0.511 0.102,0.931 0.307,1.26 0.205,0.329 0.464,0.603 0.776,0.821 0.312,0.221 0.648,0.409 1.008,0.569 0.36,0.16 0.696,0.309 1.009,0.448 0.313,0.139 0.557,0.293 0.732,0.463 0.175,0.17 0.263,0.394 0.263,0.67 0,0.361 -0.143,0.629 -0.428,0.806 -0.284,0.177 -0.695,0.265 -1.23,0.265 -0.219,0 -0.431,-0.018 -0.637,-0.052 -0.207,-0.033 -0.403,-0.076 -0.588,-0.13 -0.186,-0.052 -0.353,-0.108 -0.501,-0.17 -0.149,-0.061 -0.271,-0.117 -0.366,-0.168 l -0.576,1.557 c 0.236,0.127 0.595,0.253 1.081,0.378 m -2.864,-9.19 H 63.71 v 9.19 h 1.705 z m -7.656,3.679 0.276,-1.455 H 58.1 l 0.282,1.442 0.679,2.044 h -1.973 z m -1.823,5.511 0.621,-1.878 h 3.023 l 0.609,1.878 h 1.705 L 58.587,46.6 H 57.3 l -3.162,9.254 z m -8.225,0 v -3.886 h 0.511 l 2.687,3.886 h 2.217 l -3.029,-4.28 -0.768,-0.517 0.713,-0.497 2.681,-3.896 h -2.051 l -2.537,3.89 -0.424,0.18 v -4.069 h -1.705 v 9.19 h 1.705 z"
   id="path8"
   inkscape:connector-curvature="0"
   style="fill:#00608e" />
	<path
   clip-path="url(#SVGID_2_)"
   d="m 152.488,37.688 v 5.494 h 1.234 v -5.494 h 2.01 v -1.16 h -5.258 v 1.16 z m -4.133,-1.706 c 0.114,0.103 0.295,0.154 0.543,0.154 0.253,0 0.438,-0.052 0.55,-0.154 0.113,-0.104 0.17,-0.243 0.17,-0.418 0,-0.178 -0.057,-0.32 -0.17,-0.428 -0.112,-0.106 -0.297,-0.16 -0.55,-0.16 -0.248,0 -0.429,0.055 -0.543,0.163 -0.115,0.108 -0.172,0.25 -0.172,0.425 0,0.175 0.057,0.314 0.172,0.418 m -2.033,0 c 0.115,0.103 0.3,0.154 0.553,0.154 0.245,0 0.424,-0.052 0.539,-0.154 0.113,-0.104 0.171,-0.243 0.171,-0.418 0,-0.178 -0.057,-0.32 -0.169,-0.428 -0.113,-0.106 -0.293,-0.16 -0.541,-0.16 -0.253,0 -0.438,0.055 -0.553,0.163 -0.113,0.108 -0.172,0.25 -0.172,0.425 0,0.175 0.059,0.314 0.172,0.418 m 1.273,3.209 0.199,-1.055 h 0.047 l 0.204,1.044 0.492,1.481 h -1.43 z m -1.322,3.991 0.45,-1.359 h 2.189 l 0.44,1.359 h 1.234 l -2.395,-6.701 h -0.932 l -2.289,6.701 z m -4.361,-5.494 v 5.494 h 1.233 v -5.494 h 2.01 v -1.16 h -5.258 v 1.16 z m -2.865,-1.161 h -1.234 v 6.654 h 1.234 z m -5.998,6.654 c 0.352,0.091 0.758,0.136 1.219,0.136 0.35,0 0.67,-0.042 0.964,-0.126 0.293,-0.084 0.543,-0.212 0.749,-0.384 0.206,-0.172 0.366,-0.387 0.48,-0.646 0.115,-0.258 0.172,-0.567 0.172,-0.926 0,-0.346 -0.066,-0.635 -0.198,-0.868 -0.132,-0.233 -0.298,-0.428 -0.499,-0.586 -0.2,-0.157 -0.431,-0.296 -0.69,-0.415 -0.262,-0.119 -0.505,-0.231 -0.731,-0.334 -0.227,-0.104 -0.425,-0.219 -0.593,-0.345 -0.169,-0.125 -0.253,-0.281 -0.253,-0.469 0,-0.202 0.08,-0.362 0.242,-0.482 0.16,-0.119 0.394,-0.18 0.697,-0.18 0.316,0 0.611,0.036 0.882,0.108 0.272,0.072 0.477,0.152 0.611,0.24 l 0.387,-1.107 c -0.213,-0.131 -0.485,-0.229 -0.818,-0.298 -0.333,-0.069 -0.688,-0.103 -1.062,-0.103 -0.325,0 -0.619,0.037 -0.883,0.114 -0.264,0.077 -0.493,0.195 -0.686,0.354 -0.194,0.16 -0.344,0.359 -0.448,0.602 -0.105,0.241 -0.158,0.524 -0.158,0.85 0,0.37 0.074,0.674 0.223,0.912 0.149,0.238 0.337,0.437 0.562,0.596 0.226,0.159 0.47,0.296 0.729,0.412 0.262,0.114 0.506,0.224 0.731,0.324 0.227,0.101 0.404,0.213 0.53,0.336 0.127,0.123 0.19,0.283 0.19,0.484 0,0.261 -0.104,0.455 -0.31,0.583 -0.206,0.127 -0.503,0.191 -0.892,0.191 -0.157,0 -0.312,-0.013 -0.461,-0.037 -0.149,-0.024 -0.292,-0.055 -0.426,-0.093 -0.135,-0.039 -0.256,-0.08 -0.363,-0.124 -0.107,-0.044 -0.195,-0.085 -0.264,-0.122 l -0.418,1.127 c 0.172,0.094 0.432,0.185 0.785,0.276 m -4.985,-5.54 c 0.071,-0.019 0.172,-0.03 0.304,-0.037 0.13,-0.007 0.262,-0.01 0.395,-0.01 0.344,0 0.605,0.081 0.782,0.241 0.177,0.161 0.265,0.384 0.265,0.669 0,0.38 -0.107,0.653 -0.323,0.819 -0.216,0.165 -0.505,0.248 -0.867,0.248 h -0.555 v -1.93 z m 0,5.541 v -2.729 l 0.707,0.151 1.497,2.577 h 1.499 l -1.507,-2.512 -0.479,-0.319 c 0.384,-0.133 0.689,-0.37 0.92,-0.715 0.229,-0.343 0.343,-0.787 0.343,-1.332 0,-0.364 -0.067,-0.67 -0.202,-0.914 -0.135,-0.243 -0.315,-0.436 -0.541,-0.574 -0.227,-0.141 -0.481,-0.238 -0.767,-0.295 -0.286,-0.058 -0.576,-0.087 -0.869,-0.087 -0.128,0 -0.27,0.004 -0.421,0.01 -0.153,0.007 -0.311,0.016 -0.472,0.027 -0.162,0.014 -0.324,0.03 -0.486,0.054 -0.163,0.023 -0.315,0.048 -0.455,0.071 v 6.586 h 1.233 z m -2.252,0 v -1.16 h -2.756 v -1.624 h 2.473 v -1.16 h -2.473 v -1.55 h 2.71 v -1.16 h -3.945 v 6.654 z m -8.038,0.047 h 0.929 l 2.453,-6.701 h -1.233 l -1.272,3.897 -0.189,1.143 h -0.046 l -0.172,-1.134 -1.336,-3.906 h -1.505 z m -3.101,-6.702 h -1.234 v 6.654 h 1.234 z m -6.424,6.655 V 39.71 l -0.153,-1.044 h 0.051 l 0.521,1.044 2.501,3.519 h 0.946 v -6.701 h -1.234 v 3.499 l 0.152,1.016 h -0.046 l -0.504,-1.017 -2.514,-3.545 h -0.954 v 6.701 z m -4.803,0.116 c 0.348,0 0.667,-0.048 0.96,-0.144 0.292,-0.097 0.54,-0.245 0.743,-0.448 0.203,-0.203 0.361,-0.459 0.475,-0.77 0.112,-0.312 0.169,-0.683 0.169,-1.112 v -4.297 h -1.234 v 4.204 c 0,0.491 -0.09,0.85 -0.268,1.071 -0.179,0.224 -0.468,0.335 -0.867,0.335 -0.201,0 -0.378,-0.023 -0.53,-0.071 -0.151,-0.049 -0.279,-0.128 -0.381,-0.239 -0.103,-0.112 -0.178,-0.257 -0.226,-0.438 -0.049,-0.179 -0.072,-0.398 -0.072,-0.658 v -4.204 h -1.234 v 4.46 c -10e-4,1.54 0.822,2.311 2.465,2.311 m -5.907,-0.116 v -1.16 h -2.756 v -1.624 h 2.473 v -1.16 h -2.473 v -1.55 h 2.709 v -1.16 h -3.943 v 6.654 z m -8.99,0 v -2.784 h 2.441 v 2.784 h 1.234 V 36.528 H 90.99 v 2.71 h -2.441 v -2.71 h -1.234 v 6.654 z M 81.967,41.46 c 0.145,0.44 0.34,0.798 0.586,1.073 0.245,0.274 0.546,0.474 0.903,0.598 0.357,0.123 0.734,0.186 1.134,0.186 0.327,0 0.649,-0.031 0.963,-0.095 0.314,-0.062 0.572,-0.167 0.777,-0.311 l -0.27,-1.062 c -0.146,0.091 -0.317,0.164 -0.513,0.222 -0.197,0.057 -0.437,0.086 -0.722,0.086 -0.303,0 -0.571,-0.057 -0.803,-0.167 -0.232,-0.112 -0.425,-0.269 -0.58,-0.468 -0.154,-0.2 -0.27,-0.441 -0.345,-0.724 -0.076,-0.282 -0.114,-0.595 -0.114,-0.938 0,-0.788 0.16,-1.368 0.48,-1.742 0.32,-0.373 0.743,-0.561 1.269,-0.561 0.285,0 0.527,0.017 0.727,0.048 0.199,0.03 0.372,0.082 0.517,0.152 l 0.256,-1.104 c -0.171,-0.071 -0.387,-0.131 -0.65,-0.182 -0.263,-0.049 -0.585,-0.073 -0.966,-0.073 -0.355,0 -0.71,0.059 -1.065,0.177 -0.354,0.117 -0.661,0.311 -0.922,0.58 -0.261,0.27 -0.473,0.625 -0.636,1.064 -0.163,0.439 -0.245,0.986 -0.245,1.641 10e-4,0.626 0.074,1.161 0.219,1.6 m -4.638,1.721 c 0.352,0.091 0.758,0.136 1.219,0.136 0.349,0 0.67,-0.042 0.963,-0.126 0.294,-0.084 0.544,-0.212 0.75,-0.384 0.206,-0.172 0.366,-0.387 0.48,-0.646 0.115,-0.258 0.172,-0.567 0.172,-0.926 0,-0.346 -0.066,-0.635 -0.198,-0.868 -0.132,-0.233 -0.298,-0.428 -0.499,-0.586 -0.2,-0.157 -0.431,-0.296 -0.691,-0.415 -0.261,-0.119 -0.505,-0.231 -0.731,-0.334 -0.227,-0.104 -0.425,-0.219 -0.593,-0.345 -0.169,-0.125 -0.253,-0.281 -0.253,-0.469 0,-0.202 0.08,-0.362 0.242,-0.482 0.161,-0.119 0.393,-0.18 0.698,-0.18 0.316,0 0.611,0.036 0.882,0.108 0.272,0.072 0.476,0.152 0.611,0.24 l 0.387,-1.107 c -0.213,-0.131 -0.486,-0.229 -0.819,-0.298 -0.333,-0.069 -0.687,-0.103 -1.061,-0.103 -0.325,0 -0.619,0.037 -0.883,0.114 -0.264,0.077 -0.493,0.195 -0.686,0.354 -0.194,0.16 -0.343,0.359 -0.448,0.602 -0.105,0.241 -0.158,0.524 -0.158,0.85 0,0.37 0.074,0.674 0.223,0.912 0.148,0.238 0.336,0.437 0.561,0.596 0.226,0.159 0.469,0.296 0.73,0.412 0.261,0.114 0.505,0.224 0.731,0.324 0.227,0.101 0.404,0.213 0.53,0.336 0.127,0.123 0.191,0.283 0.191,0.484 0,0.261 -0.104,0.455 -0.31,0.583 -0.206,0.127 -0.503,0.191 -0.891,0.191 -0.158,0 -0.312,-0.013 -0.462,-0.037 -0.149,-0.024 -0.291,-0.055 -0.425,-0.093 -0.135,-0.039 -0.256,-0.08 -0.363,-0.124 -0.108,-0.044 -0.196,-0.085 -0.265,-0.122 l -0.417,1.127 c 0.17,0.094 0.431,0.185 0.783,0.276 m -1.838,-6.654 h -1.234 v 6.654 h 1.234 z m -6.423,6.655 V 39.71 l -0.154,-1.044 h 0.051 l 0.52,1.044 2.502,3.519 h 0.946 v -6.701 h -1.234 v 3.499 l 0.152,1.016 h -0.046 l -0.504,-1.017 -2.514,-3.545 h -0.954 v 6.701 z m -6.235,0 v -2.784 h 2.441 v 2.784 h 1.234 v -6.654 h -1.234 v 2.71 h -2.441 v -2.71 h -1.235 v 6.654 z M 56.251,41.46 c 0.145,0.44 0.34,0.798 0.585,1.073 0.246,0.274 0.547,0.474 0.904,0.598 0.356,0.123 0.734,0.186 1.133,0.186 0.328,0 0.649,-0.031 0.963,-0.095 0.314,-0.062 0.573,-0.167 0.777,-0.311 l -0.269,-1.062 c -0.145,0.091 -0.316,0.164 -0.513,0.222 -0.196,0.057 -0.437,0.086 -0.721,0.086 -0.303,0 -0.571,-0.057 -0.803,-0.167 -0.232,-0.112 -0.425,-0.269 -0.58,-0.468 -0.155,-0.2 -0.27,-0.441 -0.346,-0.724 -0.076,-0.282 -0.114,-0.595 -0.114,-0.938 0,-0.788 0.161,-1.368 0.481,-1.742 0.32,-0.373 0.743,-0.561 1.269,-0.561 0.285,0 0.527,0.017 0.726,0.048 0.2,0.03 0.372,0.082 0.518,0.152 l 0.255,-1.104 c -0.17,-0.071 -0.387,-0.131 -0.65,-0.182 -0.263,-0.049 -0.584,-0.073 -0.965,-0.073 -0.356,0 -0.711,0.059 -1.065,0.177 -0.354,0.117 -0.662,0.311 -0.922,0.58 -0.261,0.27 -0.473,0.625 -0.636,1.064 -0.163,0.439 -0.245,0.986 -0.245,1.641 10e-4,0.626 0.074,1.161 0.218,1.6 m -1.026,1.722 v -1.16 h -2.756 v -1.624 h 2.473 v -1.16 h -2.473 v -1.55 h 2.71 v -1.16 h -3.945 v 6.654 z M 47.27,37.688 v 5.494 h 1.234 v -5.494 h 2.01 v -1.16 h -5.258 v 1.16 z"
   id="path10"
   inkscape:connector-curvature="0"
   style="fill:#bc261a" />
</g>
<polygon
   points="16.897,35.322 38.297,35.322 38.3,31.85 27.541,28.687 16.897,32.028 "
   id="polygon14"
   style="fill:#00608e"
   transform="translate(-14,-28.687)" />
<polygon
   points="18.301,55.883 23.993,36.576 19.679,36.576 14,55.883 "
   id="polygon16"
   style="fill:#00608e"
   transform="translate(-14,-28.687)" />
<rect
   x="17.481001"
   y="7.8800015"
   width="4.7659998"
   height="4.5890002"
   id="rect18"
   style="fill:#00608e" />
<rect
   x="17.482"
   y="15.243"
   width="4.7659998"
   height="4.5890002"
   id="rect20"
   style="fill:#bc261a" />
<rect
   x="17.481001"
   y="22.605999"
   width="4.7659998"
   height="4.5890002"
   id="rect22"
   style="fill:#00608e" />
</svg>